<mxfile host="Electron" modified="2023-07-31T17:57:03.252Z" agent="Mozilla/5.0 (Windows NT 10.0; Win64; x64) AppleWebKit/537.36 (KHTML, like Gecko) draw.io/21.6.1 Chrome/112.0.5615.204 Electron/24.6.1 Safari/537.36" etag="Iw5QWB9INdfXZ8l1qfaR" version="21.6.1" type="device">
  <diagram name="Page-1" id="OpWTwDbj9fGWJGAPWJQz">
    <mxGraphModel dx="812" dy="2361" grid="1" gridSize="10" guides="1" tooltips="1" connect="1" arrows="1" fold="1" page="1" pageScale="1" pageWidth="390" pageHeight="270" math="0" shadow="0">
      <root>
        <mxCell id="0" />
        <mxCell id="1" parent="0" />
        <mxCell id="vBTqLdXRIyOvVhQML8VP-46" value="&amp;nbsp;User Interface Layer&lt;br&gt;&lt;br&gt;&lt;br&gt;&lt;br&gt;&lt;br&gt;&lt;br&gt;&lt;br&gt;&lt;br&gt;&lt;br&gt;&lt;br&gt;&lt;br&gt;" style="rounded=1;whiteSpace=wrap;html=1;align=left;arcSize=5;" parent="1" vertex="1">
          <mxGeometry y="-1830" width="390" height="180" as="geometry" />
        </mxCell>
        <mxCell id="vBTqLdXRIyOvVhQML8VP-80" value="&lt;div style=&quot;&quot;&gt;&lt;span style=&quot;font-size: 7px; background-color: initial;&quot;&gt;&amp;nbsp; Activity a / b / c&lt;/span&gt;&lt;/div&gt;&lt;font style=&quot;font-size: 7px;&quot;&gt;&lt;br&gt;&lt;br&gt;&lt;br&gt;&lt;br&gt;&lt;br&gt;&lt;br&gt;&lt;br&gt;&lt;/font&gt;" style="rounded=1;whiteSpace=wrap;html=1;align=left;" parent="1" vertex="1">
          <mxGeometry x="145" y="-1810" width="211" height="130" as="geometry" />
        </mxCell>
        <mxCell id="vBTqLdXRIyOvVhQML8VP-28" value="&amp;nbsp;Domain Layer" style="rounded=1;whiteSpace=wrap;html=1;align=left;arcSize=31;" parent="1" vertex="1">
          <mxGeometry y="-1650" width="390" height="30" as="geometry" />
        </mxCell>
        <mxCell id="vBTqLdXRIyOvVhQML8VP-72" value="" style="endArrow=classic;html=1;rounded=0;entryX=0.75;entryY=1;entryDx=0;entryDy=0;exitX=0.75;exitY=0;exitDx=0;exitDy=0;dashed=1;" parent="1" source="vBTqLdXRIyOvVhQML8VP-65" target="vBTqLdXRIyOvVhQML8VP-66" edge="1">
          <mxGeometry width="50" height="50" relative="1" as="geometry">
            <mxPoint x="300" y="-1740" as="sourcePoint" />
            <mxPoint x="160" y="-1740" as="targetPoint" />
          </mxGeometry>
        </mxCell>
        <mxCell id="vBTqLdXRIyOvVhQML8VP-74" value="" style="endArrow=classic;html=1;rounded=0;entryX=0.25;entryY=0;entryDx=0;entryDy=0;exitX=0.25;exitY=1;exitDx=0;exitDy=0;" parent="1" source="vBTqLdXRIyOvVhQML8VP-65" edge="1">
          <mxGeometry width="50" height="50" relative="1" as="geometry">
            <mxPoint x="110" y="-1660" as="sourcePoint" />
            <mxPoint x="202.4999999999999" y="-1650" as="targetPoint" />
          </mxGeometry>
        </mxCell>
        <mxCell id="vBTqLdXRIyOvVhQML8VP-76" value="" style="shape=actor;whiteSpace=wrap;html=1;" parent="1" vertex="1">
          <mxGeometry x="233" y="-1890" width="35" height="40" as="geometry" />
        </mxCell>
        <mxCell id="vBTqLdXRIyOvVhQML8VP-78" value="" style="endArrow=classic;html=1;rounded=0;entryX=0.5;entryY=0;entryDx=0;entryDy=0;exitX=0.5;exitY=1;exitDx=0;exitDy=0;startArrow=classic;startFill=1;" parent="1" source="vBTqLdXRIyOvVhQML8VP-76" target="vBTqLdXRIyOvVhQML8VP-66" edge="1">
          <mxGeometry width="50" height="50" relative="1" as="geometry">
            <mxPoint x="171" y="-1910" as="sourcePoint" />
            <mxPoint x="170" y="-1860" as="targetPoint" />
          </mxGeometry>
        </mxCell>
        <mxCell id="vBTqLdXRIyOvVhQML8VP-66" value="&lt;p style=&quot;line-height: 70%;&quot;&gt;&lt;font style=&quot;font-size: 7px;&quot;&gt;User Interface Elements&lt;/font&gt;&lt;/p&gt;" style="rounded=1;whiteSpace=wrap;html=1;fillColor=#00FF00;" parent="1" vertex="1">
          <mxGeometry x="155" y="-1780" width="190" height="20" as="geometry" />
        </mxCell>
        <mxCell id="vBTqLdXRIyOvVhQML8VP-65" value="&lt;p style=&quot;line-height: 70%;&quot;&gt;&lt;font style=&quot;font-size: 7px;&quot;&gt;ViewModel&lt;/font&gt;&lt;/p&gt;" style="rounded=1;whiteSpace=wrap;html=1;fillColor=#7EA6E0;" parent="1" vertex="1">
          <mxGeometry x="155" y="-1710" width="190" height="20" as="geometry" />
        </mxCell>
        <mxCell id="vBTqLdXRIyOvVhQML8VP-73" value="" style="endArrow=classic;html=1;rounded=0;entryX=0.75;entryY=1;entryDx=0;entryDy=0;exitX=0.75;exitY=0;exitDx=0;exitDy=0;dashed=1;" parent="1" target="vBTqLdXRIyOvVhQML8VP-65" edge="1">
          <mxGeometry width="50" height="50" relative="1" as="geometry">
            <mxPoint x="297.5" y="-1650" as="sourcePoint" />
            <mxPoint x="295" y="-1710" as="targetPoint" />
          </mxGeometry>
        </mxCell>
        <mxCell id="vBTqLdXRIyOvVhQML8VP-70" value="&lt;p style=&quot;line-height: 70%;&quot;&gt;&lt;font style=&quot;font-size: 7px;&quot;&gt;UI State&lt;/font&gt;&lt;/p&gt;" style="rounded=1;whiteSpace=wrap;html=1;fillColor=#808080;" parent="1" vertex="1">
          <mxGeometry x="295" y="-1720" width="40" height="20" as="geometry" />
        </mxCell>
        <mxCell id="vBTqLdXRIyOvVhQML8VP-86" value="" style="endArrow=classic;html=1;rounded=0;entryX=0.25;entryY=0;entryDx=0;entryDy=0;exitX=0.25;exitY=1;exitDx=0;exitDy=0;" parent="1" source="vBTqLdXRIyOvVhQML8VP-66" target="vBTqLdXRIyOvVhQML8VP-65" edge="1">
          <mxGeometry width="50" height="50" relative="1" as="geometry">
            <mxPoint x="213" y="-1750" as="sourcePoint" />
            <mxPoint x="212" y="-1700" as="targetPoint" />
          </mxGeometry>
        </mxCell>
      </root>
    </mxGraphModel>
  </diagram>
</mxfile>
